<?xml version="1.0" encoding="UTF-8"?>
<svg version="1.1" xmlns="http://www.w3.org/2000/svg" width="512" height="512">
<path d="M0 0 C22.37728355 20.42698253 40.27142827 44.89434061 52.9765625 72.4140625 C53.27900879 73.05907715 53.58145508 73.7040918 53.89306641 74.36865234 C61.99312692 91.73950213 67.31545608 109.61504795 70.9765625 128.4140625 C71.22647949 129.67234863 71.22647949 129.67234863 71.48144531 130.95605469 C76.21872931 155.87828787 75.89571625 183.55913831 70.9765625 208.4140625 C70.80495605 209.30657715 70.63334961 210.1990918 70.45654297 211.11865234 C62.37956116 252.1531846 43.82477234 289.24920822 15.9765625 320.4140625 C15.491875 320.96046387 15.0071875 321.50686523 14.5078125 322.06982422 C-27.62375085 369.37183008 -88.40410843 396.46442759 -151.27441406 400.2734375 C-216.58086015 403.61415801 -279.60555046 380.37115323 -328.046875 336.828125 C-350.42415855 316.40114247 -368.31830327 291.93378439 -381.0234375 264.4140625 C-381.32588379 263.76904785 -381.62833008 263.1240332 -381.93994141 262.45947266 C-390.04000192 245.08862287 -395.36233108 227.21307705 -399.0234375 208.4140625 C-399.19004883 207.57520508 -399.35666016 206.73634766 -399.52832031 205.87207031 C-404.26560431 180.94983713 -403.94259125 153.26898669 -399.0234375 128.4140625 C-398.85183105 127.52154785 -398.68022461 126.6290332 -398.50341797 125.70947266 C-390.42643616 84.6749404 -371.87164734 47.57891678 -344.0234375 16.4140625 C-343.29640625 15.59446045 -343.29640625 15.59446045 -342.5546875 14.75830078 C-300.42312415 -32.54370508 -239.64276657 -59.63630259 -176.77246094 -63.4453125 C-111.46601485 -66.78603301 -48.44132454 -43.54302823 0 0 Z " fill="#141415" transform="translate(420.0234375,87.5859375)"/>
<path d="M0 0 C1.22332031 -0.01095703 2.44664062 -0.02191406 3.70703125 -0.03320312 C13.80515915 0.04956842 13.80515915 0.04956842 18.5 4.5625 C19.76895162 7.10040324 19.6588277 8.95808591 19.7109375 11.796875 C19.73929687 12.84617188 19.76765625 13.89546875 19.796875 14.9765625 C19.84858862 17.18473408 19.89296707 19.39309071 19.9296875 21.6015625 C20.0443111 29.57186246 20.0443111 29.57186246 23.5 36.5625 C29.56584622 41.46749694 35.56419889 41.08881369 43.125 41.0625 C54.15389141 41.02438171 54.15389141 41.02438171 58.734375 42.85546875 C61.66756926 47.35260066 61.16259002 52.12805941 61.125 57.375 C61.04291449 68.97607299 61.04291449 68.97607299 66.40625 78.96484375 C71.38581479 81.53636143 76.47890845 81.12184509 82 81.125 C84.2396748 81.1339587 86.47934306 81.15562874 88.71875 81.19140625 C90.2027832 81.1924939 90.2027832 81.1924939 91.71679688 81.19360352 C95.00099239 81.62890346 96.84296932 82.6089864 99.5 84.5625 C102.73350295 89.41275442 101.90975848 94.73507739 101.9375 100.4375 C101.97037109 101.62214844 102.00324219 102.80679688 102.03710938 104.02734375 C102.06718864 108.87830884 102.05290805 112.48618944 99.81640625 116.83984375 C94.39395811 119.65645109 89.01425405 119.32288084 83 119.25 C81.77667969 119.27771484 80.55335938 119.30542969 79.29296875 119.33398438 C69.3216822 119.30674042 69.3216822 119.30674042 66.19140625 116.26953125 C63.30502463 111.60046602 63.87674994 105.85734717 63.9375 100.5625 C64.3042843 90.74265164 64.3042843 90.74265164 59.5 82.5625 C53.35459009 77.69163349 47.43320567 78.03608508 39.8125 78.0625 C37.57941593 78.07016067 35.34618724 78.06047304 33.11328125 78.03125 C32.13141846 78.03576172 31.14955566 78.04027344 30.13793945 78.04492188 C26.77793609 77.43045018 25.62990049 76.17026862 23.5 73.5625 C22.19862054 70.95974108 22.37346902 69.02120019 22.359375 66.109375 C22.34003906 65.01496094 22.32070312 63.92054688 22.30078125 62.79296875 C22.26715758 60.48845444 22.24871577 58.18366435 22.24609375 55.87890625 C22.23067247 48.92370422 22.23067247 48.92370422 19.203125 42.890625 C13.17434311 37.69820592 7.82624394 38.19627135 0.125 38.1875 C-0.9990625 38.16300781 -2.123125 38.13851562 -3.28125 38.11328125 C-11.65289973 38.06250345 -11.65289973 38.06250345 -18.5 42.5625 C-23.17178787 48.7816944 -21.90260346 57.11559814 -21.8515625 64.52929688 C-21.91921621 69.273513 -21.97221854 72.61019868 -24.296875 76.8046875 C-29.20284618 79.49698876 -33.86816814 79.18795415 -39.375 79.125 C-49.64800776 78.94907822 -49.64800776 78.94907822 -58.5 83.5625 C-63.28163253 88.657041 -61.93533401 96.55823688 -61.93945312 103.10351562 C-62.05408774 109.21077353 -62.36391564 112.93163172 -66.5 117.5625 C-70.95268601 119.78884301 -76.98548636 118.83727227 -81.875 118.875 C-83.12023437 118.90400391 -84.36546875 118.93300781 -85.6484375 118.96289062 C-86.8446875 118.97126953 -88.0409375 118.97964844 -89.2734375 118.98828125 C-90.91965088 119.01015503 -90.91965088 119.01015503 -92.59912109 119.0324707 C-95.5 118.5625 -95.5 118.5625 -97.85375977 116.91845703 C-101.08223235 112.29814554 -100.11092018 106.56799831 -100.0625 101.125 C-100.08634766 99.89716797 -100.11019531 98.66933594 -100.13476562 97.40429688 C-100.12666229 92.4423533 -100.09095457 88.69616795 -97.77734375 84.2578125 C-92.53339654 81.54521048 -87.31718235 81.85905378 -81.5 81.875 C-79.16659478 81.85836937 -76.83322911 81.83392371 -74.5 81.80078125 C-73.46875 81.80118408 -72.4375 81.80158691 -71.375 81.80200195 C-68.34017923 81.54918613 -66.19940372 80.96096103 -63.5 79.5625 C-62.18931667 77.11961372 -62.18931667 77.11961372 -61.5 74.5625 C-61.17 73.9025 -60.84 73.2425 -60.5 72.5625 C-60.40552966 70.66192525 -60.368161 68.75836964 -60.359375 66.85546875 C-60.34003906 65.71142578 -60.32070312 64.56738281 -60.30078125 63.38867188 C-60.26709295 60.97477561 -60.24871069 58.56061428 -60.24609375 56.14648438 C-60.06347032 47.58721277 -60.06347032 47.58721277 -57.69140625 43.2734375 C-52.79952757 40.65086362 -48.15305973 40.93725339 -42.6875 41 C-31.90436538 41.25086892 -31.90436538 41.25086892 -22.5 36.5625 C-19.71221415 32.82843471 -19.13881341 30.17947583 -19.1640625 25.5625 C-19.15117187 24.428125 -19.13828125 23.29375 -19.125 22.125 C-19.125 19.74998715 -19.13281275 17.37496145 -19.1484375 15 C-19.03381655 6.59446332 -19.03381655 6.59446332 -16.8046875 2.28515625 C-11.39345478 -0.53559272 -6.00148386 -0.11699415 0 0 Z " fill="#35B8DF" transform="translate(214.5,124.4375)"/>
<path d="M0 0 C1.22783203 -0.00644531 2.45566406 -0.01289063 3.72070312 -0.01953125 C5.00009766 -0.00019531 6.27949219 0.01914063 7.59765625 0.0390625 C8.87318359 0.01972656 10.14871094 0.00039062 11.46289062 -0.01953125 C20.47722852 0.02773848 20.47722852 0.02773848 25.0078125 2.46484375 C27.9715739 8.2031903 27.20986482 14.34683426 27.109375 20.67382812 C27.15148973 27.43324272 27.79774448 32.63573954 32.66015625 37.6640625 C35.93815995 39.8396225 38.68102052 39.90385229 42.5625 39.90234375 C44.26889648 39.92651367 44.26889648 39.92651367 46.00976562 39.95117188 C48.39773234 39.96807093 50.78581052 39.97331795 53.17382812 39.96679688 C62.9048859 40.13751719 62.9048859 40.13751719 65.9140625 43.14453125 C66.49027344 43.97597656 67.06648438 44.80742187 67.66015625 45.6640625 C67.99015625 45.9940625 68.32015625 46.3240625 68.66015625 46.6640625 C68.76947433 48.44683159 68.81601495 50.23352477 68.8359375 52.01953125 C68.85978516 53.11716797 68.88363281 54.21480469 68.90820312 55.34570312 C68.95080948 57.66323051 68.98225481 59.98099283 69.00195312 62.29882812 C69.17494097 70.80197664 69.17494097 70.80197664 73.66015625 77.6640625 C78.29777205 81.87523087 84.12432478 81.10606185 90.03515625 81.0390625 C91.0509375 81.05066406 92.06671875 81.06226563 93.11328125 81.07421875 C99.01644379 81.05121942 103.61156588 80.86019852 108.66015625 77.6640625 C114.4288684 70.81255001 113.1233588 62.52801907 112.97265625 54.00390625 C113.03067559 45.56209294 113.03067559 45.56209294 115.94921875 41.3984375 C120.61920506 38.46740844 126.34132059 39.00052021 131.66015625 39.0390625 C141.19585072 39.38382881 141.19585072 39.38382881 149.66015625 35.6640625 C154.1296635 29.70156974 153.09515102 22.09739742 153.09960938 14.98632812 C153.2430865 7.35235552 153.2430865 7.35235552 155.5703125 3.51171875 C160.59924819 -0.93442439 167.20765662 0.43930694 173.59765625 0.4140625 C174.89896484 0.3934375 176.20027344 0.3728125 177.54101562 0.3515625 C178.78560547 0.34640625 180.03019531 0.34125 181.3125 0.3359375 C183.0294104 0.32191895 183.0294104 0.32191895 184.78100586 0.30761719 C187.66015625 0.6640625 187.66015625 0.6640625 189.52978516 1.79223633 C192.22290342 6.25187731 191.12532781 12.55779191 191.09765625 17.6015625 C191.11763672 18.88998047 191.13761719 20.17839844 191.15820312 21.50585938 C191.15723633 23.36114258 191.15723633 23.36114258 191.15625 25.25390625 C191.15810303 26.38691162 191.15995605 27.51991699 191.16186523 28.68725586 C190.55469975 32.28977105 189.48165107 33.42482789 186.66015625 35.6640625 C184.00152606 36.9933776 181.92732167 36.80803049 178.953125 36.83984375 C177.80908203 36.86369141 176.66503906 36.88753906 175.48632812 36.91210938 C173.07244203 36.95486742 170.6583256 36.98623185 168.24414062 37.00585938 C167.09623047 37.03357422 165.94832031 37.06128906 164.765625 37.08984375 C163.71528076 37.10442627 162.66493652 37.11900879 161.58276367 37.1340332 C157.92587432 37.79722816 156.28737446 39.07115338 153.66015625 41.6640625 C151.433314 44.89772619 151.40898461 47.69545709 151.38671875 51.56640625 C151.36609375 52.70400391 151.34546875 53.84160156 151.32421875 55.01367188 C151.2982204 57.40162076 151.27996519 59.78966676 151.26953125 62.17773438 C151.24632812 63.31662109 151.223125 64.45550781 151.19921875 65.62890625 C151.19100098 66.666521 151.1827832 67.70413574 151.17431641 68.77319336 C150.53461884 72.36989745 149.16129593 74.05050877 146.66015625 76.6640625 C144.06299709 77.96264208 142.11272997 77.80726129 139.20703125 77.83984375 C137.56541016 77.87561523 137.56541016 77.87561523 135.890625 77.91210938 C133.58612076 77.95478538 131.28137796 77.98619371 128.9765625 78.00585938 C120.52076989 78.21654284 120.52076989 78.21654284 113.66015625 82.6640625 C110.6441906 85.94490428 110.29214986 88.1532013 110.2890625 92.56640625 C110.27166016 93.70400391 110.25425781 94.84160156 110.23632812 96.01367188 C110.22722847 98.40168105 110.22200734 100.78970822 110.22070312 103.17773438 C110.20201172 104.31662109 110.18332031 105.45550781 110.1640625 106.62890625 C110.16220947 107.666521 110.16035645 108.70413574 110.15844727 109.77319336 C109.5166609 113.49656052 108.44057548 115.11694909 105.66015625 117.6640625 C102.73095703 118.31103516 102.73095703 118.31103516 99.35546875 118.328125 C98.13214844 118.33457031 96.90882813 118.34101563 95.6484375 118.34765625 C94.37355469 118.32832031 93.09867187 118.30898438 91.78515625 118.2890625 C89.88443359 118.31806641 89.88443359 118.31806641 87.9453125 118.34765625 C77.59431336 118.29323459 77.59431336 118.29323459 73.8125 115.93359375 C70.42742802 110.79147896 70.96850934 105.7434839 71.09765625 99.7265625 C71.67574756 90.88435718 71.67574756 90.88435718 68.5078125 82.97265625 C61.43305189 77.23715073 53.03321259 78.33527863 44.33789062 78.36132812 C39.7290429 78.27275139 36.52800323 78.14232854 32.44921875 75.89453125 C29.65910469 70.85648687 30.03566844 65.9527907 30.09765625 60.2890625 C30.32397392 49.75568501 30.32397392 49.75568501 25.66015625 40.6640625 C22.4346219 38.56470925 19.81386191 38.42423138 16.01171875 38.42578125 C14.92375 38.40966797 13.83578125 38.39355469 12.71484375 38.37695312 C10.4362544 38.3600843 8.15754867 38.35479532 5.87890625 38.36132812 C-3.44671605 38.19046861 -3.44671605 38.19046861 -7.06640625 35.24609375 C-11.56327442 30.13882595 -10.59738339 24.90650107 -10.65234375 18.3515625 C-10.68134766 17.21009766 -10.71035156 16.06863281 -10.74023438 14.89257812 C-10.74861328 13.78978516 -10.75699219 12.68699219 -10.765625 11.55078125 C-10.78749878 10.03810669 -10.78749878 10.03810669 -10.80981445 8.49487305 C-9.71844053 1.92111689 -6.31998077 0.0318158 0 0 Z " fill="#3781B0" transform="translate(206.33984375,167.3359375)"/>
<path d="M0 0 C2.97 0 5.94 0 9 0 C12.81275471 7.2355686 16.19233167 14.59463024 19.375 22.125 C19.73271484 22.96651611 20.09042969 23.80803223 20.45898438 24.67504883 C20.78962891 25.46548584 21.12027344 26.25592285 21.4609375 27.0703125 C21.75790527 27.77945801 22.05487305 28.48860352 22.36083984 29.21923828 C23 31 23 31 23 33 C23.66 33 24.32 33 25 33 C25.38929688 31.7625 25.77859375 30.525 26.1796875 29.25 C28.14780074 23.34797298 30.62199836 17.69126311 33.125 12 C33.58003906 10.95199219 34.03507812 9.90398437 34.50390625 8.82421875 C37.86468534 1.13531466 37.86468534 1.13531466 39 0 C41.97 0 44.94 0 48 0 C48 14.19 48 28.38 48 43 C45.69 43 43.38 43 41 43 C40.505 30.13 40.505 30.13 40 17 C34.555 29.87 34.555 29.87 29 43 C25.7 43 22.4 43 19 43 C15.7 35.41 12.4 27.82 9 20 C8.67 27.59 8.34 35.18 8 43 C5.36 43 2.72 43 0 43 C0 28.81 0 14.62 0 0 Z " fill="#38ACD8" transform="translate(204,329)"/>
<path d="M0 0 C10 0 10 0 12.54052734 2.10791016 C13.1330127 3.07519043 13.72549805 4.0424707 14.3359375 5.0390625 C15.00753906 6.09480469 15.67914063 7.15054687 16.37109375 8.23828125 C17.36302734 9.91470703 17.36302734 9.91470703 18.375 11.625 C19.05949219 12.71941406 19.74398438 13.81382812 20.44921875 14.94140625 C21.72769248 16.98944669 22.99166713 19.04666515 24.23583984 21.11572266 C26.0777979 24.12719407 28.04183999 27.06275998 30 30 C30.33 20.1 30.66 10.2 31 0 C33.64 0 36.28 0 39 0 C39 14.19 39 28.38 39 43 C29 43 29 43 26.35180664 40.78442383 C25.71106201 39.76888428 25.07031738 38.75334473 24.41015625 37.70703125 C23.68892578 36.60166016 22.96769531 35.49628906 22.22460938 34.35742188 C21.50315009 33.17624278 20.78245334 31.9945976 20.0625 30.8125 C19.3176598 29.64833275 18.56963628 28.48619573 17.81835938 27.32617188 C14.78294201 22.607936 11.88645305 17.81075508 9 13 C8.67 22.9 8.34 32.8 8 43 C5.36 43 2.72 43 0 43 C0 28.81 0 14.62 0 0 Z " fill="#36ACD5" transform="translate(313,329)"/>
<path d="M0 0 C10.89 0 21.78 0 33 0 C33 2.64 33 5.28 33 8 C24.75 8 16.5 8 8 8 C8 11.3 8 14.6 8 18 C13.94 18 19.88 18 26 18 C26 20.31 26 22.62 26 25 C20.06 25 14.12 25 8 25 C8 28.63 8 32.26 8 36 C15.92 36 23.84 36 32 36 C32 38.31 32 40.62 32 43 C21.44 43 10.88 43 0 43 C0 28.81 0 14.62 0 0 Z " fill="#36ADD6" transform="translate(266,329)"/>
<path d="M0 0 C10.89 0 21.78 0 33 0 C33 2.64 33 5.28 33 8 C24.75 8 16.5 8 8 8 C8 11.3 8 14.6 8 18 C13.94 18 19.88 18 26 18 C26 20.31 26 22.62 26 25 C20.06 25 14.12 25 8 25 C8 28.63 8 32.26 8 36 C15.92 36 23.84 36 32 36 C32 38.31 32 40.62 32 43 C21.44 43 10.88 43 0 43 C0 28.81 0 14.62 0 0 Z " fill="#36ADD6" transform="translate(108,329)"/>
<path d="M0 0 C11.22 0 22.44 0 34 0 C34 8 34 8 32.78515625 10.1796875 C32.21667969 10.73914063 31.64820313 11.29859375 31.0625 11.875 C30.423125 12.535 29.78375 13.195 29.125 13.875 C28.42375 14.57625 27.7225 15.2775 27 16 C25.51131597 17.61628552 24.03248192 19.24168675 22.5625 20.875 C21.81226563 21.70515625 21.06203125 22.5353125 20.2890625 23.390625 C16.70542024 27.47573256 13.35702211 31.72742641 10 36 C17.59 36 25.18 36 33 36 C33 38.31 33 40.62 33 43 C21.78 43 10.56 43 -1 43 C-1 35 -1 35 0.21484375 33.07421875 C1.06755859 32.38779297 1.06755859 32.38779297 1.9375 31.6875 C5.97709778 28.11306803 9.23130097 24.15074076 12.59375 19.94140625 C15.63911325 16.2187463 18.83284376 12.61960713 22 9 C14.74 8.67 7.48 8.34 0 8 C0 5.36 0 2.72 0 0 Z " fill="#37AFD9" transform="translate(156,329)"/>
<path d="M0 0 C2.64 0 5.28 0 8 0 C8.07477218 4.12589075 8.12889223 8.25151308 8.16479492 12.37792969 C8.17977914 13.77839031 8.20017379 15.17880483 8.22631836 16.57910156 C8.49223551 31.19933085 8.49223551 31.19933085 5 38 C0.08564043 43.0471801 -5.09228742 44.11894467 -11.9375 44.375 C-17.5366569 44.27774417 -20.56439355 43.39748579 -25 40 C-29.00419478 35.59538575 -29.14075529 31.42272021 -29.09765625 25.70703125 C-29.0962413 25.00100266 -29.09482635 24.29497406 -29.09336853 23.56755066 C-29.08777764 21.31582374 -29.07522688 19.06419679 -29.0625 16.8125 C-29.05748382 15.28450665 -29.05292112 13.75651173 -29.04882812 12.22851562 C-29.0378112 8.48563865 -29.02055287 4.74283627 -29 1 C-26.69 1 -24.38 1 -22 1 C-21.98541748 1.8878418 -21.97083496 2.77568359 -21.95581055 3.69042969 C-21.89465466 6.99327962 -21.82048622 10.29530915 -21.73754883 13.59765625 C-21.70435206 15.02527914 -21.67630369 16.45303163 -21.65356445 17.88085938 C-21.61991987 19.93675815 -21.56760438 21.99147512 -21.51171875 24.046875 C-21.48553467 25.28276367 -21.45935059 26.51865234 -21.43237305 27.79199219 C-20.97463412 31.18820307 -20.46672796 32.65311745 -18 35 C-14.64208525 35.52328625 -14.64208525 35.52328625 -10.9375 35.3125 C-9.68839844 35.28800781 -8.43929688 35.26351562 -7.15234375 35.23828125 C-4.09964637 35.20754204 -4.09964637 35.20754204 -2 34 C-0.83597273 30.50791819 -0.78881492 27.60852228 -0.68359375 23.92578125 C-0.66281265 23.2419487 -0.64203156 22.55811615 -0.62062073 21.8535614 C-0.55533846 19.6733079 -0.49633983 17.49293595 -0.4375 15.3125 C-0.39429447 13.83267014 -0.35067953 12.35285217 -0.30664062 10.87304688 C-0.19967917 7.24882378 -0.09835177 3.62446811 0 0 Z " fill="#3AA6D5" transform="translate(396,329)"/>
<path d="M0 0 C1.15628906 0.00386719 2.31257813 0.00773438 3.50390625 0.01171875 C6.4375 0.3125 6.4375 0.3125 8.4375 2.3125 C8.63599071 4.85785141 8.71601775 7.26966759 8.6875 9.8125 C8.69523437 10.50214844 8.70296875 11.19179687 8.7109375 11.90234375 C8.69083293 17.05916707 8.69083293 17.05916707 6.4375 19.3125 C3.50390625 19.61328125 3.50390625 19.61328125 0 19.625 C-1.73056641 19.65013672 -1.73056641 19.65013672 -3.49609375 19.67578125 C-6.5625 19.3125 -6.5625 19.3125 -8.44921875 18.19921875 C-10.1060783 15.39127783 -9.95934674 13.04581783 -9.9375 9.8125 C-9.94910156 8.09546875 -9.94910156 8.09546875 -9.9609375 6.34375 C-9.5625 3.3125 -9.5625 3.3125 -8.44921875 1.42578125 C-5.62469246 -0.2408647 -3.2487711 -0.04718885 0 0 Z " fill="#59D7DD" transform="translate(295.5625,174.6875)"/>
<path d="M0 0 C1.73056641 -0.02513672 1.73056641 -0.02513672 3.49609375 -0.05078125 C6.5625 0.3125 6.5625 0.3125 8.453125 1.421875 C10.11241617 4.24968107 9.92218374 6.62658091 9.875 9.875 C9.87113281 11.03128906 9.86726563 12.18757812 9.86328125 13.37890625 C9.5625 16.3125 9.5625 16.3125 7.5625 18.3125 C4.99957683 18.48413731 2.55904143 18.54514558 0 18.5 C-0.69802734 18.49935547 -1.39605469 18.49871094 -2.11523438 18.49804688 C-7.29718842 18.45281158 -7.29718842 18.45281158 -8.4375 17.3125 C-8.56403198 14.82011431 -8.62269825 12.36779559 -8.625 9.875 C-8.63724609 9.18083984 -8.64949219 8.48667969 -8.66210938 7.77148438 C-8.66739842 5.95029099 -8.55919207 4.1296308 -8.4375 2.3125 C-5.65940605 -0.46559395 -3.86994797 0.01294297 0 0 Z " fill="#5ADCE2" transform="translate(216.4375,216.6875)"/>
<path d="M0 0 C1.22332031 -0.01095703 2.44664062 -0.02191406 3.70703125 -0.03320312 C13.80515915 0.04956842 13.80515915 0.04956842 18.5 4.5625 C19.86839363 7.29928725 19.71634818 9.60514424 19.81640625 12.6640625 C19.85830078 13.87578125 19.90019531 15.0875 19.94335938 16.3359375 C19.98267578 17.60695312 20.02199219 18.87796875 20.0625 20.1875 C20.10568359 21.46625 20.14886719 22.745 20.19335938 24.0625 C20.29969886 27.22905348 20.40172833 30.39568753 20.5 33.5625 C19.84 33.5625 19.18 33.5625 18.5 33.5625 C17.70947496 30.03998413 17.3472349 26.71978947 17.25390625 23.11328125 C17.22103516 22.10072266 17.18816406 21.08816406 17.15429688 20.04492188 C17.09276303 17.92004049 17.03551722 15.79503086 16.98242188 13.66992188 C16.94826172 12.66123047 16.91410156 11.65253906 16.87890625 10.61328125 C16.8538501 9.69200439 16.82879395 8.77072754 16.80297852 7.8215332 C16.70595032 5.36389228 16.70595032 5.36389228 14.5 3.5625 C11.61912077 3.25051461 11.61912077 3.25051461 8.25 3.296875 C7.0021875 3.29429688 5.754375 3.29171875 4.46875 3.2890625 C3.1590625 3.29679687 1.849375 3.30453125 0.5 3.3125 C-1.46453125 3.30089844 -1.46453125 3.30089844 -3.46875 3.2890625 C-5.34046875 3.29292969 -5.34046875 3.29292969 -7.25 3.296875 C-8.97476563 3.30025879 -8.97476563 3.30025879 -10.734375 3.30371094 C-13.64199832 3.27906324 -13.64199832 3.27906324 -15.5 5.5625 C-15.82164363 7.85492824 -15.82164363 7.85492824 -15.80859375 10.5078125 C-15.83373047 11.50296875 -15.85886719 12.498125 -15.88476562 13.5234375 C-15.91953032 15.60931938 -15.95086048 17.69526174 -15.97851562 19.78125 C-16.33136715 33.17239578 -16.33136715 33.17239578 -21.10327148 38.27783203 C-21.56419189 38.70177246 -22.0251123 39.12571289 -22.5 39.5625 C-23.49 39.2325 -24.48 38.9025 -25.5 38.5625 C-24.695625 37.77875 -23.89125 36.995 -23.0625 36.1875 C-19.46317969 32.50039139 -19.38259701 30.88496959 -19.359375 25.85546875 C-19.34003906 24.71142578 -19.32070312 23.56738281 -19.30078125 22.38867188 C-19.26709295 19.97477561 -19.24871069 17.56061428 -19.24609375 15.14648438 C-19.1426457 10.2980377 -19.0456731 6.61629988 -16.796875 2.2734375 C-11.38823072 -0.53341818 -5.99341142 -0.11683679 0 0 Z " fill="#5376D4" transform="translate(214.5,124.4375)"/>
<path d="M0 0 C1.20462891 -0.02126953 1.20462891 -0.02126953 2.43359375 -0.04296875 C4.5625 0.1875 4.5625 0.1875 6.5625 2.1875 C6.79296875 4.31640625 6.79296875 4.31640625 6.75 6.75 C6.74033203 7.95849609 6.74033203 7.95849609 6.73046875 9.19140625 C6.5625 11.1875 6.5625 11.1875 5.5625 12.1875 C3.89820949 12.28573937 2.22968069 12.31723631 0.5625 12.3125 C-0.79875 12.31636719 -0.79875 12.31636719 -2.1875 12.3203125 C-4.4375 12.1875 -4.4375 12.1875 -5.4375 11.1875 C-5.53573937 9.52320949 -5.56723631 7.85468069 -5.5625 6.1875 C-5.56507813 5.28 -5.56765625 4.3725 -5.5703125 3.4375 C-5.33551659 -0.54021891 -3.53720995 0.02829768 0 0 Z " fill="#5ADCE2" transform="translate(263.4375,253.8125)"/>
<path d="M0 0 C0.9075 0.00257813 1.815 0.00515625 2.75 0.0078125 C4.11125 0.00394531 4.11125 0.00394531 5.5 0 C7.75 0.1328125 7.75 0.1328125 8.75 1.1328125 C8.84823937 2.79710301 8.87973631 4.46563181 8.875 6.1328125 C8.87757813 7.0403125 8.88015625 7.9478125 8.8828125 8.8828125 C8.75 11.1328125 8.75 11.1328125 7.75 12.1328125 C5.75390625 12.30078125 5.75390625 12.30078125 3.3125 12.3203125 C2.10787109 12.34158203 2.10787109 12.34158203 0.87890625 12.36328125 C-1.25 12.1328125 -1.25 12.1328125 -3.25 10.1328125 C-3.48046875 8.00390625 -3.48046875 8.00390625 -3.4375 5.5703125 C-3.43105469 4.76464844 -3.42460937 3.95898438 -3.41796875 3.12890625 C-3.17738872 0.26992033 -2.87242287 0.16955274 0 0 Z " fill="#58D5DA" transform="translate(245.25,144.8671875)"/>
<path d="M0 0 C0.80566406 0.00257813 1.61132812 0.00515625 2.44140625 0.0078125 C3.64603516 0.00394531 3.64603516 0.00394531 4.875 0 C7.00390625 0.1328125 7.00390625 0.1328125 9.00390625 1.1328125 C9.05790361 2.59074134 9.09669802 4.04923962 9.12890625 5.5078125 C9.15210938 6.31992188 9.1753125 7.13203125 9.19921875 7.96875 C9.00390625 10.1328125 9.00390625 10.1328125 7.00390625 12.1328125 C4.875 12.36328125 4.875 12.36328125 2.44140625 12.3203125 C1.23291016 12.31064453 1.23291016 12.31064453 0 12.30078125 C-1.99609375 12.1328125 -1.99609375 12.1328125 -2.99609375 11.1328125 C-3.09433312 9.46852199 -3.12583006 7.79999319 -3.12109375 6.1328125 C-3.12367188 5.2253125 -3.12625 4.3178125 -3.12890625 3.3828125 C-2.95949303 0.51275331 -2.86506105 0.19063028 0 0 Z " fill="#58D7DD" transform="translate(198.99609375,242.8671875)"/>
<path d="M0 0 C0.8146875 0.00257813 1.629375 0.00515625 2.46875 0.0078125 C3.2834375 0.00523437 4.098125 0.00265625 4.9375 0 C6.96875 0.1328125 6.96875 0.1328125 7.96875 1.1328125 C8.06698937 2.79710301 8.09848631 4.46563181 8.09375 6.1328125 C8.09632813 7.0403125 8.09890625 7.9478125 8.1015625 8.8828125 C7.96875 11.1328125 7.96875 11.1328125 6.96875 12.1328125 C5.47136876 12.2307182 3.96932108 12.26256114 2.46875 12.2578125 C1.6540625 12.26039063 0.839375 12.26296875 0 12.265625 C-2.03125 12.1328125 -2.03125 12.1328125 -3.03125 11.1328125 C-3.12948937 9.46852199 -3.16098631 7.79999319 -3.15625 6.1328125 C-3.15882813 5.2253125 -3.16140625 4.3178125 -3.1640625 3.3828125 C-2.99322193 0.4885723 -2.88913554 0.18890502 0 0 Z " fill="#5ADCE2" transform="translate(342.03125,265.8671875)"/>
<path d="M0 0 C0.8146875 0.00257813 1.629375 0.00515625 2.46875 0.0078125 C3.2834375 0.00523437 4.098125 0.00265625 4.9375 0 C6.96875 0.1328125 6.96875 0.1328125 7.96875 1.1328125 C8.06698937 2.79710301 8.09848631 4.46563181 8.09375 6.1328125 C8.09632813 7.0403125 8.09890625 7.9478125 8.1015625 8.8828125 C7.96875 11.1328125 7.96875 11.1328125 6.96875 12.1328125 C5.47136876 12.2307182 3.96932108 12.26256114 2.46875 12.2578125 C1.6540625 12.26039063 0.839375 12.26296875 0 12.265625 C-2.03125 12.1328125 -2.03125 12.1328125 -3.03125 11.1328125 C-3.12948937 9.46852199 -3.16098631 7.79999319 -3.15625 6.1328125 C-3.15882813 5.2253125 -3.16140625 4.3178125 -3.1640625 3.3828125 C-2.99322193 0.4885723 -2.88913554 0.18890502 0 0 Z " fill="#5ADBE1" transform="translate(308.03125,155.8671875)"/>
<path d="M0 0 C0.8146875 0.00257813 1.629375 0.00515625 2.46875 0.0078125 C3.2834375 0.00523437 4.098125 0.00265625 4.9375 0 C6.96875 0.1328125 6.96875 0.1328125 7.96875 1.1328125 C8.06698937 2.79710301 8.09848631 4.46563181 8.09375 6.1328125 C8.09632813 7.0403125 8.09890625 7.9478125 8.1015625 8.8828125 C7.96875 11.1328125 7.96875 11.1328125 6.96875 12.1328125 C5.47136876 12.2307182 3.96932108 12.26256114 2.46875 12.2578125 C1.6540625 12.26039063 0.839375 12.26296875 0 12.265625 C-2.03125 12.1328125 -2.03125 12.1328125 -3.03125 11.1328125 C-3.12948937 9.46852199 -3.16098631 7.79999319 -3.15625 6.1328125 C-3.15882813 5.2253125 -3.16140625 4.3178125 -3.1640625 3.3828125 C-2.99322193 0.4885723 -2.88913554 0.18890502 0 0 Z " fill="#5ADBE1" transform="translate(165.03125,132.8671875)"/>
<path d="M0 0 C1.22783203 -0.00644531 2.45566406 -0.01289063 3.72070312 -0.01953125 C5.00009766 -0.00019531 6.27949219 0.01914063 7.59765625 0.0390625 C8.87318359 0.01972656 10.14871094 0.00039062 11.46289062 -0.01953125 C21.86085617 0.034994 21.86085617 0.034994 25.0390625 3.203125 C25.57402344 4.01523438 26.10898438 4.82734375 26.66015625 5.6640625 C26.33015625 6.6540625 26.00015625 7.6440625 25.66015625 8.6640625 C25.39203125 7.8596875 25.12390625 7.0553125 24.84765625 6.2265625 C24.25984375 4.958125 24.25984375 4.958125 23.66015625 3.6640625 C18.6413911 1.99114078 13.41465612 2.4375463 8.16015625 2.4140625 C7.00644531 2.3934375 5.85273438 2.3728125 4.6640625 2.3515625 C3.55933594 2.34640625 2.45460937 2.34125 1.31640625 2.3359375 C-0.20243164 2.32191895 -0.20243164 2.32191895 -1.75195312 2.30761719 C-4.32922935 2.47925092 -4.32922935 2.47925092 -6.16137695 3.82446289 C-7.81026533 6.39839575 -7.77429757 8.38154319 -7.8515625 11.42578125 C-7.90473633 13.10317383 -7.90473633 13.10317383 -7.95898438 14.81445312 C-7.98154297 15.98169922 -8.00410156 17.14894531 -8.02734375 18.3515625 C-8.06150391 19.53041016 -8.09566406 20.70925781 -8.13085938 21.92382812 C-8.213423 24.83714475 -8.28254697 27.75015716 -8.33984375 30.6640625 C-8.99984375 30.6640625 -9.65984375 30.6640625 -10.33984375 30.6640625 C-10.45622801 26.60180429 -10.52715748 22.5399762 -10.58984375 18.4765625 C-10.62335938 17.32607422 -10.656875 16.17558594 -10.69140625 14.99023438 C-10.70429688 13.87841797 -10.7171875 12.76660156 -10.73046875 11.62109375 C-10.75141602 10.59991455 -10.77236328 9.57873535 -10.79394531 8.52661133 C-9.74707531 1.9273905 -6.33142148 0.03187339 0 0 Z " fill="#1FB1C5" transform="translate(206.33984375,167.3359375)"/>
<path d="M0 0 C1.25683594 0.00322266 2.51367188 0.00644531 3.80859375 0.00976562 C5.12730469 0.01814453 6.44601562 0.02652344 7.8046875 0.03515625 C9.14452961 0.04017136 10.4843735 0.04473424 11.82421875 0.04882812 C15.10941956 0.06064539 18.39453147 0.07712008 21.6796875 0.09765625 C22.3396875 1.41765625 22.9996875 2.73765625 23.6796875 4.09765625 C23.13763672 3.77458496 22.59558594 3.45151367 22.03710938 3.11865234 C17.39841574 1.10964066 12.1607495 1.72828457 7.1796875 1.72265625 C6.03886719 1.69816406 4.89804687 1.67367187 3.72265625 1.6484375 C2.62566406 1.64457031 1.52867187 1.64070312 0.3984375 1.63671875 C-0.60251953 1.62850098 -1.60347656 1.6202832 -2.63476562 1.61181641 C-6.10034272 2.23877081 -7.25427072 3.27542993 -9.3203125 6.09765625 C-9.92294251 8.54599649 -9.92294251 8.54599649 -9.859375 11.1953125 C-9.89417969 12.64454102 -9.89417969 12.64454102 -9.9296875 14.12304688 C-9.93742187 15.62641602 -9.93742187 15.62641602 -9.9453125 17.16015625 C-9.97082191 19.15116607 -10.00432123 21.14209403 -10.046875 23.1328125 C-10.05283691 24.01332275 -10.05879883 24.89383301 -10.06494141 25.80102539 C-10.3203125 28.09765625 -10.3203125 28.09765625 -12.3203125 31.09765625 C-12.43669676 27.03539804 -12.50762623 22.97356995 -12.5703125 18.91015625 C-12.60382813 17.75966797 -12.63734375 16.60917969 -12.671875 15.42382812 C-12.68476563 14.31201172 -12.69765625 13.20019531 -12.7109375 12.0546875 C-12.73188477 11.0335083 -12.75283203 10.0123291 -12.77441406 8.96020508 C-12.20153152 5.34888908 -10.82417075 3.70831552 -8.3203125 1.09765625 C-5.50207058 -0.31146471 -3.14779968 -0.01417928 0 0 Z " fill="#1FB3C9" transform="translate(372.3203125,167.90234375)"/>
<path d="M0 0 C0 0.99 0 1.98 0 3 C-0.33 3.33 -0.66 3.66 -1 4 C-1.12125098 5.61286321 -1.17963764 7.23054467 -1.2109375 8.84765625 C-1.23929688 9.84603516 -1.26765625 10.84441406 -1.296875 11.87304688 C-1.34828457 13.97184249 -1.39274545 16.07082176 -1.4296875 18.16992188 C-1.84280624 31.6221008 -1.84280624 31.6221008 -6.60302734 36.71508789 C-7.06402832 37.13910889 -7.5250293 37.56312988 -8 38 C-8.99 37.67 -9.98 37.34 -11 37 C-10.195625 36.21625 -9.39125 35.4325 -8.5625 34.625 C-4.96212054 30.9368064 -4.87773853 29.29175221 -4.82421875 24.2578125 C-4.80037109 23.10925781 -4.77652344 21.96070313 -4.75195312 20.77734375 C-4.70912536 18.35043711 -4.67779843 15.92329916 -4.65820312 13.49609375 C-4.63048828 12.34496094 -4.60277344 11.19382813 -4.57421875 10.0078125 C-4.55963623 8.95223145 -4.54505371 7.89665039 -4.5300293 6.80908203 C-3.88356551 3.38291327 -2.64436273 2.187146 0 0 Z " fill="#4C87D7" transform="translate(200,126)"/>
<path d="M0 0 C1.98 0 3.96 0 6 0 C6 9.24 6 18.48 6 28 C5.67 28 5.34 28 5 28 C5 19.09 5 10.18 5 1 C4.01 1.66 3.02 2.32 2 3 C1.41651248 5.6556728 1.41651248 5.6556728 1.3125 8.625 C1.24675781 9.62789063 1.18101562 10.63078125 1.11328125 11.6640625 C1.07589844 12.43492187 1.03851563 13.20578125 1 14 C0.67 14 0.34 14 0 14 C0 9.38 0 4.76 0 0 Z " fill="#2FD0E8" transform="translate(397,330)"/>
<path d="M0 0 C2.5 0.125 2.5 0.125 3.5 1.125 C3.625 3.625 3.625 3.625 3.5 6.125 C2.5 7.125 2.5 7.125 -0.5625 7.1875 C-2.0165625 7.1565625 -2.0165625 7.1565625 -3.5 7.125 C-3.54254356 5.12545254 -3.54080783 3.12458364 -3.5 1.125 C-2.5 0.125 -2.5 0.125 0 0 Z " fill="#55CCD1" transform="translate(286.5,130.875)"/>
<path d="M0 0 C0.66 0 1.32 0 2 0 C2.02689216 1.47906892 2.04634621 2.95827483 2.0625 4.4375 C2.07410156 5.26121094 2.08570313 6.08492188 2.09765625 6.93359375 C2 9 2 9 1 10 C-0.68608966 10.07205511 -2.37500659 10.08386068 -4.0625 10.0625 C-4.98160156 10.05347656 -5.90070313 10.04445313 -6.84765625 10.03515625 C-7.55792969 10.02355469 -8.26820313 10.01195312 -9 10 C-9 9.34 -9 8.68 -9 8 C-6.03 8 -3.06 8 0 8 C0 5.36 0 2.72 0 0 Z " fill="#53C9CE" transform="translate(268,256)"/>
<path d="M0 0 C1.98 0 3.96 0 6 0 C6 1.98 6 3.96 6 6 C4.02 6 2.04 6 0 6 C0 4.02 0 2.04 0 0 Z " fill="#5DE3E9" transform="translate(223,273)"/>
<path d="M0 0 C0.33 0 0.66 0 1 0 C1 11.88 1 23.76 1 36 C0.67 36 0.34 36 0 36 C0 24.12 0 12.24 0 0 Z " fill="#FBFBFB" transform="translate(495,238)"/>
<path d="M0 0 C0.33 0 0.66 0 1 0 C1 11.88 1 23.76 1 36 C0.67 36 0.34 36 0 36 C0 24.12 0 12.24 0 0 Z " fill="#FBFBFB" transform="translate(16,238)"/>
<path d="M0 0 C0.66 1.32 1.32 2.64 2 4 C-1.625 9.875 -1.625 9.875 -5 11 C-5.33 9.35 -5.66 7.7 -6 6 C-5.195625 5.38125 -4.39125 4.7625 -3.5625 4.125 C-0.96125481 2.25835959 -0.96125481 2.25835959 0 0 Z " fill="#15191B" transform="translate(317,236)"/>
<path d="M0 0 C0 0.99 0 1.98 0 3 C-0.33 3.33 -0.66 3.66 -1 4 C-1.15740605 5.70563778 -1.25093392 7.41727244 -1.31640625 9.12890625 C-1.35830078 10.16337891 -1.40019531 11.19785156 -1.44335938 12.26367188 C-1.48267578 13.35228516 -1.52199219 14.44089844 -1.5625 15.5625 C-1.60568359 16.65498047 -1.64886719 17.74746094 -1.69335938 18.87304688 C-1.79982068 21.58189564 -1.90183516 24.29083992 -2 27 C-2.33 27 -2.66 27 -3 27 C-3.08676908 22.87513162 -3.14031295 18.75049616 -3.1875 14.625 C-3.21263672 13.449375 -3.23777344 12.27375 -3.26367188 11.0625 C-3.27333984 9.94101563 -3.28300781 8.81953125 -3.29296875 7.6640625 C-3.3086792 6.62717285 -3.32438965 5.5902832 -3.34057617 4.52197266 C-3.22818604 3.68972168 -3.1157959 2.8574707 -3 2 C-2.01 1.34 -1.02 0.68 0 0 Z " fill="#5784E6" transform="translate(200,126)"/>
<path d="M0 0 C2.64 0 5.28 0 8 0 C7.67 0.66 7.34 1.32 7 2 C5.35 2.33 3.7 2.66 2 3 C1.67 6.63 1.34 10.26 1 14 C0.67 14 0.34 14 0 14 C0 9.38 0 4.76 0 0 Z " fill="#28DBE8" transform="translate(205,330)"/>
<path d="M0 0 C7.26 0 14.52 0 22 0 C22 0.33 22 0.66 22 1 C14.74 1 7.48 1 0 1 C0 0.67 0 0.34 0 0 Z " fill="#FEFEFE" transform="translate(245,489)"/>
<path d="M0 0 C7.26 0 14.52 0 22 0 C22 0.33 22 0.66 22 1 C14.74 1 7.48 1 0 1 C0 0.67 0 0.34 0 0 Z " fill="#FEFEFE" transform="translate(245,22)"/>
<path d="M0 0 C-0.28875 0.495 -0.5775 0.99 -0.875 1.5 C-2.41288416 4.91752035 -3.14847805 8.3506202 -4 12 C-4.33 12 -4.66 12 -5 12 C-5.36666667 4.66666667 -5.36666667 4.66666667 -3.625 1.5 C-2 0 -2 0 0 0 Z " fill="#28BECE" transform="translate(120,208)"/>
<path d="M0 0 C0 3.93169105 -1.39419615 5.16427228 -4 8 C-4.66 8 -5.32 8 -6 8 C-4.73058503 4.08597051 -3.48832306 2.20927127 0 0 Z " fill="#162224" transform="translate(159,205)"/>
<path d="M0 0 C4.62 0 9.24 0 14 0 C14 0.33 14 0.66 14 1 C9.38 1 4.76 1 0 1 C0 0.67 0 0.34 0 0 Z " fill="#FCFCFC" transform="translate(267,488)"/>
<path d="M0 0 C4.62 0 9.24 0 14 0 C14 0.33 14 0.66 14 1 C9.38 1 4.76 1 0 1 C0 0.67 0 0.34 0 0 Z " fill="#FCFCFC" transform="translate(231,488)"/>
<path d="M0 0 C4.62 0 9.24 0 14 0 C14 0.33 14 0.66 14 1 C9.38 1 4.76 1 0 1 C0 0.67 0 0.34 0 0 Z " fill="#FCFCFC" transform="translate(267,23)"/>
<path d="M0 0 C4.62 0 9.24 0 14 0 C14 0.33 14 0.66 14 1 C9.38 1 4.76 1 0 1 C0 0.67 0 0.34 0 0 Z " fill="#FCFCFC" transform="translate(231,23)"/>
<path d="M0 0 C0.33 0 0.66 0 1 0 C1 3.3 1 6.6 1 10 C0.67 10 0.34 10 0 10 C0 6.7 0 3.4 0 0 Z " fill="#FDFDFD" transform="translate(494,274)"/>
<path d="M0 0 C0.33 0 0.66 0 1 0 C1 3.3 1 6.6 1 10 C0.67 10 0.34 10 0 10 C0 6.7 0 3.4 0 0 Z " fill="#FDFDFD" transform="translate(17,274)"/>
<path d="M0 0 C0.33 0 0.66 0 1 0 C1 3.3 1 6.6 1 10 C0.67 10 0.34 10 0 10 C0 6.7 0 3.4 0 0 Z " fill="#FDFDFD" transform="translate(494,228)"/>
<path d="M0 0 C0.33 0 0.66 0 1 0 C1 3.3 1 6.6 1 10 C0.67 10 0.34 10 0 10 C0 6.7 0 3.4 0 0 Z " fill="#FDFDFD" transform="translate(17,228)"/>
<path d="M0 0 C2.64 0 5.28 0 8 0 C8 0.33 8 0.66 8 1 C5.36 1 2.72 1 0 1 C0 0.67 0 0.34 0 0 Z " fill="#FCFCFC" transform="translate(281,487)"/>
<path d="M0 0 C2.64 0 5.28 0 8 0 C8 0.33 8 0.66 8 1 C5.36 1 2.72 1 0 1 C0 0.67 0 0.34 0 0 Z " fill="#FCFCFC" transform="translate(223,487)"/>
<path d="M0 0 C2.64 0 5.28 0 8 0 C8 0.33 8 0.66 8 1 C5.36 1 2.72 1 0 1 C0 0.67 0 0.34 0 0 Z " fill="#FCFCFC" transform="translate(281,24)"/>
<path d="M0 0 C2.64 0 5.28 0 8 0 C8 0.33 8 0.66 8 1 C5.36 1 2.72 1 0 1 C0 0.67 0 0.34 0 0 Z " fill="#FCFCFC" transform="translate(223,24)"/>
<path d="M0 0 C2.31 0 4.62 0 7 0 C7 0.33 7 0.66 7 1 C4.69 1 2.38 1 0 1 C0 0.67 0 0.34 0 0 Z " fill="#FCFCFC" transform="translate(289,486)"/>
<path d="M0 0 C2.31 0 4.62 0 7 0 C7 0.33 7 0.66 7 1 C4.69 1 2.38 1 0 1 C0 0.67 0 0.34 0 0 Z " fill="#FCFCFC" transform="translate(216,486)"/>
<path d="M0 0 C0.33 0 0.66 0 1 0 C1 2.31 1 4.62 1 7 C0.67 7 0.34 7 0 7 C0 4.69 0 2.38 0 0 Z " fill="#FCFCFC" transform="translate(493,284)"/>
<path d="M0 0 C0.33 0 0.66 0 1 0 C1 2.31 1 4.62 1 7 C0.67 7 0.34 7 0 7 C0 4.69 0 2.38 0 0 Z " fill="#FCFCFC" transform="translate(18,284)"/>
<path d="M0 0 C0.33 0 0.66 0 1 0 C1 2.31 1 4.62 1 7 C0.67 7 0.34 7 0 7 C0 4.69 0 2.38 0 0 Z " fill="#FCFCFC" transform="translate(493,221)"/>
<path d="M0 0 C0.33 0 0.66 0 1 0 C1 2.31 1 4.62 1 7 C0.67 7 0.34 7 0 7 C0 4.69 0 2.38 0 0 Z " fill="#FCFCFC" transform="translate(18,221)"/>
<path d="M0 0 C2.31 0 4.62 0 7 0 C7 0.33 7 0.66 7 1 C4.69 1 2.38 1 0 1 C0 0.67 0 0.34 0 0 Z " fill="#FCFCFC" transform="translate(289,25)"/>
<path d="M0 0 C2.31 0 4.62 0 7 0 C7 0.33 7 0.66 7 1 C4.69 1 2.38 1 0 1 C0 0.67 0 0.34 0 0 Z " fill="#FCFCFC" transform="translate(216,25)"/>
<path d="M0 0 C0.66 0.33 1.32 0.66 2 1 C0.02 1.99 0.02 1.99 -2 3 C-1.34 2.01 -0.68 1.02 0 0 Z " fill="#FDFDFD" transform="translate(419,425)"/>
<path d="M0 0 C1.98 0.99 1.98 0.99 4 2 C3.01 2 2.02 2 1 2 C0.67 1.34 0.34 0.68 0 0 Z " fill="#FDFDFD" transform="translate(91,425)"/>
<path d="M0 0 C1.485 0.99 1.485 0.99 3 2 C2.67 2.66 2.34 3.32 2 4 C1.34 2.68 0.68 1.36 0 0 Z " fill="#FDFDFD" transform="translate(75,408)"/>
<path d="M0 0 C0 0.99 0 1.98 0 3 C-0.99 3.495 -0.99 3.495 -2 4 C-1.34 2.68 -0.68 1.36 0 0 Z " fill="#FDFDFD" transform="translate(436,408)"/>
<path d="M0 0 C0.33 0 0.66 0 1 0 C1 1.98 1 3.96 1 6 C0.67 6 0.34 6 0 6 C0 4.02 0 2.04 0 0 Z " fill="#FCFCFC" transform="translate(492,291)"/>
<path d="M0 0 C0.33 0 0.66 0 1 0 C1 1.98 1 3.96 1 6 C0.67 6 0.34 6 0 6 C0 4.02 0 2.04 0 0 Z " fill="#FCFCFC" transform="translate(19,291)"/>
<path d="M0 0 C0.33 0 0.66 0 1 0 C1 1.98 1 3.96 1 6 C0.67 6 0.34 6 0 6 C0 4.02 0 2.04 0 0 Z " fill="#FCFCFC" transform="translate(492,215)"/>
<path d="M0 0 C0.33 0 0.66 0 1 0 C1 1.98 1 3.96 1 6 C0.67 6 0.34 6 0 6 C0 4.02 0 2.04 0 0 Z " fill="#FCFCFC" transform="translate(19,215)"/>
<path d="M0 0 C1.485 0.99 1.485 0.99 3 2 C2.67 2.66 2.34 3.32 2 4 C1.34 2.68 0.68 1.36 0 0 Z " fill="#FDFDFD" transform="translate(434,100)"/>
<path d="M0 0 C0 0.99 0 1.98 0 3 C-0.99 3.495 -0.99 3.495 -2 4 C-1.34 2.68 -0.68 1.36 0 0 Z " fill="#FDFDFD" transform="translate(77,100)"/>
<path d="M0 0 C1.98 0.99 1.98 0.99 4 2 C3.01 2 2.02 2 1 2 C0.67 1.34 0.34 0.68 0 0 Z " fill="#FDFDFD" transform="translate(417,84)"/>
<path d="M0 0 C0.66 0.33 1.32 0.66 2 1 C0.02 1.99 0.02 1.99 -2 3 C-1.34 2.01 -0.68 1.02 0 0 Z " fill="#FDFDFD" transform="translate(93,84)"/>
<path d="M0 0 C1.65 0 3.3 0 5 0 C5 0.33 5 0.66 5 1 C3.35 1 1.7 1 0 1 C0 0.67 0 0.34 0 0 Z " fill="#FCFCFC" transform="translate(296,485)"/>
<path d="M0 0 C1.65 0 3.3 0 5 0 C5 0.33 5 0.66 5 1 C3.35 1 1.7 1 0 1 C0 0.67 0 0.34 0 0 Z " fill="#FCFCFC" transform="translate(211,485)"/>
<path d="M0 0 C1.65 0 3.3 0 5 0 C5 0.33 5 0.66 5 1 C3.35 1 1.7 1 0 1 C0 0.67 0 0.34 0 0 Z " fill="#FCFCFC" transform="translate(301,484)"/>
<path d="M0 0 C1.65 0 3.3 0 5 0 C5 0.33 5 0.66 5 1 C3.35 1 1.7 1 0 1 C0 0.67 0 0.34 0 0 Z " fill="#FCFCFC" transform="translate(206,484)"/>
<path d="M0 0 C1.65 0 3.3 0 5 0 C5 0.33 5 0.66 5 1 C3.35 1 1.7 1 0 1 C0 0.67 0 0.34 0 0 Z " fill="#FDFDFD" transform="translate(306,483)"/>
<path d="M0 0 C1.65 0 3.3 0 5 0 C5 0.33 5 0.66 5 1 C3.35 1 1.7 1 0 1 C0 0.67 0 0.34 0 0 Z " fill="#FDFDFD" transform="translate(201,483)"/>
<path d="M0 0 C0.33 0 0.66 0 1 0 C1 1.65 1 3.3 1 5 C0.67 5 0.34 5 0 5 C0 3.35 0 1.7 0 0 Z " fill="#FDFDFD" transform="translate(489,306)"/>
<path d="M0 0 C0.33 0 0.66 0 1 0 C1 1.65 1 3.3 1 5 C0.67 5 0.34 5 0 5 C0 3.35 0 1.7 0 0 Z " fill="#FDFDFD" transform="translate(22,306)"/>
<path d="M0 0 C0.33 0 0.66 0 1 0 C1 1.65 1 3.3 1 5 C0.67 5 0.34 5 0 5 C0 3.35 0 1.7 0 0 Z " fill="#FDFDFD" transform="translate(491,297)"/>
<path d="M0 0 C0.33 0 0.66 0 1 0 C1 1.65 1 3.3 1 5 C0.67 5 0.34 5 0 5 C0 3.35 0 1.7 0 0 Z " fill="#FDFDFD" transform="translate(20,297)"/>
<path d="M0 0 C0.33 0 0.66 0 1 0 C1 1.65 1 3.3 1 5 C0.67 5 0.34 5 0 5 C0 3.35 0 1.7 0 0 Z " fill="#FDFDFD" transform="translate(491,210)"/>
<path d="M0 0 C0.33 0 0.66 0 1 0 C1 1.65 1 3.3 1 5 C0.67 5 0.34 5 0 5 C0 3.35 0 1.7 0 0 Z " fill="#FDFDFD" transform="translate(20,210)"/>
<path d="M0 0 C0.33 0 0.66 0 1 0 C1 1.65 1 3.3 1 5 C0.67 5 0.34 5 0 5 C0 3.35 0 1.7 0 0 Z " fill="#FDFDFD" transform="translate(489,201)"/>
<path d="M0 0 C0.33 0 0.66 0 1 0 C1 1.65 1 3.3 1 5 C0.67 5 0.34 5 0 5 C0 3.35 0 1.7 0 0 Z " fill="#FDFDFD" transform="translate(22,201)"/>
<path d="M0 0 C1.65 0 3.3 0 5 0 C5 0.33 5 0.66 5 1 C3.35 1 1.7 1 0 1 C0 0.67 0 0.34 0 0 Z " fill="#FDFDFD" transform="translate(306,28)"/>
<path d="M0 0 C1.65 0 3.3 0 5 0 C5 0.33 5 0.66 5 1 C3.35 1 1.7 1 0 1 C0 0.67 0 0.34 0 0 Z " fill="#FDFDFD" transform="translate(201,28)"/>
<path d="M0 0 C1.65 0 3.3 0 5 0 C5 0.33 5 0.66 5 1 C3.35 1 1.7 1 0 1 C0 0.67 0 0.34 0 0 Z " fill="#FCFCFC" transform="translate(301,27)"/>
<path d="M0 0 C1.65 0 3.3 0 5 0 C5 0.33 5 0.66 5 1 C3.35 1 1.7 1 0 1 C0 0.67 0 0.34 0 0 Z " fill="#FCFCFC" transform="translate(206,27)"/>
<path d="M0 0 C1.65 0 3.3 0 5 0 C5 0.33 5 0.66 5 1 C3.35 1 1.7 1 0 1 C0 0.67 0 0.34 0 0 Z " fill="#FCFCFC" transform="translate(296,26)"/>
<path d="M0 0 C1.65 0 3.3 0 5 0 C5 0.33 5 0.66 5 1 C3.35 1 1.7 1 0 1 C0 0.67 0 0.34 0 0 Z " fill="#FCFCFC" transform="translate(211,26)"/>
<path d="M0 0 C4 1 4 1 4 1 Z " fill="#FCFCFC" transform="translate(311,482)"/>
<path d="M0 0 C4 1 4 1 4 1 Z " fill="#FCFCFC" transform="translate(197,482)"/>
<path d="M0 0 C4 1 4 1 4 1 Z " fill="#FDFDFD" transform="translate(315,481)"/>
<path d="M0 0 C4 1 4 1 4 1 Z " fill="#FDFDFD" transform="translate(193,481)"/>
<path d="M0 0 C4 1 4 1 4 1 Z " fill="#FDFDFD" transform="translate(322,479)"/>
<path d="M0 0 C4 1 4 1 4 1 Z " fill="#FDFDFD" transform="translate(186,479)"/>
<path d="M0 0 C0.66 0.33 1.32 0.66 2 1 C1.01 1 0.02 1 -1 1 C-0.67 0.67 -0.34 0.34 0 0 Z " fill="#FCFCFC" transform="translate(388,449)"/>
<path d="M0 0 C0.99 0.33 1.98 0.66 3 1 C2.01 1 1.02 1 0 1 C0 0.67 0 0.34 0 0 Z " fill="#FCFCFC" transform="translate(122,449)"/>
<path d="M0 0 C0.66 0.33 1.32 0.66 2 1 C1.01 1 0.02 1 -1 1 C-0.67 0.67 -0.34 0.34 0 0 Z " fill="#FDFDFD" transform="translate(411,432)"/>
<path d="M0 0 C0.99 0.33 1.98 0.66 3 1 C2.01 1 1.02 1 0 1 C0 0.67 0 0.34 0 0 Z " fill="#FDFDFD" transform="translate(99,432)"/>
<path d="M0 0 C1 4 1 4 1 4 Z " fill="#FDFDFD" transform="translate(485,321)"/>
<path d="M0 0 C1 4 1 4 1 4 Z " fill="#FDFDFD" transform="translate(26,321)"/>
<path d="M0 0 C1 4 1 4 1 4 Z " fill="#FDFDFD" transform="translate(487,314)"/>
<path d="M0 0 C1 4 1 4 1 4 Z " fill="#FDFDFD" transform="translate(24,314)"/>
<path d="M0 0 C1 4 1 4 1 4 Z " fill="#FDFDFD" transform="translate(490,302)"/>
<path d="M0 0 C1 4 1 4 1 4 Z " fill="#FDFDFD" transform="translate(21,302)"/>
<path d="M0 0 C1 4 1 4 1 4 Z " fill="#FDFDFD" transform="translate(490,206)"/>
<path d="M0 0 C1 4 1 4 1 4 Z " fill="#FDFDFD" transform="translate(21,206)"/>
<path d="M0 0 C1 4 1 4 1 4 Z " fill="#FDFDFD" transform="translate(487,194)"/>
<path d="M0 0 C1 4 1 4 1 4 Z " fill="#FDFDFD" transform="translate(24,194)"/>
<path d="M0 0 C1 4 1 4 1 4 Z " fill="#FDFDFD" transform="translate(485,187)"/>
<path d="M0 0 C1 4 1 4 1 4 Z " fill="#FDFDFD" transform="translate(26,187)"/>
<path d="M0 0 C0.99 0.33 1.98 0.66 3 1 C2.01 1 1.02 1 0 1 C0 0.67 0 0.34 0 0 Z " fill="#FDFDFD" transform="translate(410,78)"/>
<path d="M0 0 C0.66 0.33 1.32 0.66 2 1 C1.01 1 0.02 1 -1 1 C-0.67 0.67 -0.34 0.34 0 0 Z " fill="#FDFDFD" transform="translate(100,78)"/>
<path d="M0 0 C0.99 0.33 1.98 0.66 3 1 C2.01 1 1.02 1 0 1 C0 0.67 0 0.34 0 0 Z " fill="#FCFCFC" transform="translate(387,61)"/>
<path d="M0 0 C0.66 0.33 1.32 0.66 2 1 C1.01 1 0.02 1 -1 1 C-0.67 0.67 -0.34 0.34 0 0 Z " fill="#FCFCFC" transform="translate(123,61)"/>
<path d="M0 0 C4 1 4 1 4 1 Z " fill="#FDFDFD" transform="translate(322,32)"/>
<path d="M0 0 C4 1 4 1 4 1 Z " fill="#FDFDFD" transform="translate(186,32)"/>
<path d="M0 0 C4 1 4 1 4 1 Z " fill="#FDFDFD" transform="translate(315,30)"/>
<path d="M0 0 C4 1 4 1 4 1 Z " fill="#FDFDFD" transform="translate(193,30)"/>
<path d="M0 0 C4 1 4 1 4 1 Z " fill="#FCFCFC" transform="translate(311,29)"/>
<path d="M0 0 C4 1 4 1 4 1 Z " fill="#FCFCFC" transform="translate(197,29)"/>
<path d="M0 0 C3 1 3 1 3 1 Z " fill="#FCFCFC" transform="translate(319,480)"/>
<path d="M0 0 C3 1 3 1 3 1 Z " fill="#FCFCFC" transform="translate(190,480)"/>
<path d="M0 0 C3 1 3 1 3 1 Z " fill="#FCFCFC" transform="translate(326,478)"/>
<path d="M0 0 C3 1 3 1 3 1 Z " fill="#FCFCFC" transform="translate(183,478)"/>
<path d="M0 0 C3 1 3 1 3 1 Z " fill="#FDFDFD" transform="translate(329,477)"/>
<path d="M0 0 C3 1 3 1 3 1 Z " fill="#FDFDFD" transform="translate(180,477)"/>
<path d="M0 0 C3 1 3 1 3 1 Z " fill="#FDFDFD" transform="translate(332,476)"/>
<path d="M0 0 C3 1 3 1 3 1 Z " fill="#FDFDFD" transform="translate(177,476)"/>
<path d="M0 0 C3 1 3 1 3 1 Z " fill="#FDFDFD" transform="translate(335,475)"/>
<path d="M0 0 C3 1 3 1 3 1 Z " fill="#FDFDFD" transform="translate(174,475)"/>
<path d="M0 0 C3 1 3 1 3 1 Z " fill="#FCFCFC" transform="translate(338,474)"/>
<path d="M0 0 C3 1 3 1 3 1 Z " fill="#FCFCFC" transform="translate(171,474)"/>
<path d="M0 0 C3 1 3 1 3 1 Z " fill="#FDFDFD" transform="translate(343,472)"/>
<path d="M0 0 C3 1 3 1 3 1 Z " fill="#FDFDFD" transform="translate(166,472)"/>
<path d="M0 0 C3 1 3 1 3 1 Z " fill="#FDFDFD" transform="translate(348,470)"/>
<path d="M0 0 C3 1 3 1 3 1 Z " fill="#FDFDFD" transform="translate(161,470)"/>
<path d="M0 0 C3 1 3 1 3 1 Z " fill="#FDFDFD" transform="translate(355,467)"/>
<path d="M0 0 C3 1 3 1 3 1 Z " fill="#FDFDFD" transform="translate(154,467)"/>
<path d="" fill="#FCFCFC" transform="translate(0,0)"/>
<path d="" fill="#FCFCFC" transform="translate(0,0)"/>
<path d="" fill="#FCFCFC" transform="translate(0,0)"/>
<path d="" fill="#FCFCFC" transform="translate(0,0)"/>
<path d="" fill="#FCFCFC" transform="translate(0,0)"/>
<path d="" fill="#FCFCFC" transform="translate(0,0)"/>
<path d="" fill="#FDFDFD" transform="translate(0,0)"/>
<path d="" fill="#FDFDFD" transform="translate(0,0)"/>
<path d="" fill="#FCFCFC" transform="translate(0,0)"/>
<path d="" fill="#FCFCFC" transform="translate(0,0)"/>
<path d="" fill="#FDFDFD" transform="translate(0,0)"/>
<path d="" fill="#FDFDFD" transform="translate(0,0)"/>
<path d="" fill="#FCFCFC" transform="translate(0,0)"/>
<path d="" fill="#FCFCFC" transform="translate(0,0)"/>
<path d="" fill="#FCFCFC" transform="translate(0,0)"/>
<path d="" fill="#FCFCFC" transform="translate(0,0)"/>
<path d="" fill="#FDFDFD" transform="translate(0,0)"/>
<path d="" fill="#FDFDFD" transform="translate(0,0)"/>
<path d="" fill="#FCFCFC" transform="translate(0,0)"/>
<path d="" fill="#FCFCFC" transform="translate(0,0)"/>
<path d="" fill="#FDFDFD" transform="translate(0,0)"/>
<path d="" fill="#FDFDFD" transform="translate(0,0)"/>
<path d="" fill="#FCFCFC" transform="translate(0,0)"/>
<path d="" fill="#FCFCFC" transform="translate(0,0)"/>
<path d="" fill="#FCFCFC" transform="translate(0,0)"/>
<path d="" fill="#FCFCFC" transform="translate(0,0)"/>
<path d="" fill="#FCFCFC" transform="translate(0,0)"/>
<path d="" fill="#FCFCFC" transform="translate(0,0)"/>
<path d="M0 0 C3 1 3 1 3 1 Z " fill="#FDFDFD" transform="translate(355,44)"/>
<path d="M0 0 C3 1 3 1 3 1 Z " fill="#FDFDFD" transform="translate(154,44)"/>
<path d="M0 0 C3 1 3 1 3 1 Z " fill="#FDFDFD" transform="translate(348,41)"/>
<path d="M0 0 C3 1 3 1 3 1 Z " fill="#FDFDFD" transform="translate(161,41)"/>
<path d="M0 0 C3 1 3 1 3 1 Z " fill="#FDFDFD" transform="translate(343,39)"/>
<path d="M0 0 C3 1 3 1 3 1 Z " fill="#FDFDFD" transform="translate(166,39)"/>
<path d="M0 0 C3 1 3 1 3 1 Z " fill="#FCFCFC" transform="translate(338,37)"/>
<path d="M0 0 C3 1 3 1 3 1 Z " fill="#FCFCFC" transform="translate(171,37)"/>
<path d="M0 0 C3 1 3 1 3 1 Z " fill="#FDFDFD" transform="translate(335,36)"/>
<path d="M0 0 C3 1 3 1 3 1 Z " fill="#FDFDFD" transform="translate(174,36)"/>
<path d="M0 0 C3 1 3 1 3 1 Z " fill="#FDFDFD" transform="translate(332,35)"/>
<path d="M0 0 C3 1 3 1 3 1 Z " fill="#FDFDFD" transform="translate(177,35)"/>
<path d="M0 0 C3 1 3 1 3 1 Z " fill="#FDFDFD" transform="translate(329,34)"/>
<path d="M0 0 C3 1 3 1 3 1 Z " fill="#FDFDFD" transform="translate(180,34)"/>
<path d="M0 0 C3 1 3 1 3 1 Z " fill="#FCFCFC" transform="translate(326,33)"/>
<path d="M0 0 C3 1 3 1 3 1 Z " fill="#FCFCFC" transform="translate(183,33)"/>
<path d="M0 0 C3 1 3 1 3 1 Z " fill="#FCFCFC" transform="translate(319,31)"/>
<path d="M0 0 C3 1 3 1 3 1 Z " fill="#FCFCFC" transform="translate(190,31)"/>
<path d="M0 0 C2 1 2 1 2 1 Z " fill="#FDFDFD" transform="translate(341,473)"/>
<path d="M0 0 C2 1 2 1 2 1 Z " fill="#FDFDFD" transform="translate(169,473)"/>
<path d="M0 0 C2 1 2 1 2 1 Z " fill="#FDFDFD" transform="translate(346,471)"/>
<path d="M0 0 C2 1 2 1 2 1 Z " fill="#FDFDFD" transform="translate(164,471)"/>
<path d="M0 0 C2 1 2 1 2 1 Z " fill="#FDFDFD" transform="translate(351,469)"/>
<path d="M0 0 C2 1 2 1 2 1 Z " fill="#FDFDFD" transform="translate(159,469)"/>
<path d="M0 0 C2 1 2 1 2 1 Z " fill="#FDFDFD" transform="translate(353,468)"/>
<path d="M0 0 C2 1 2 1 2 1 Z " fill="#FDFDFD" transform="translate(157,468)"/>
<path d="M0 0 C2 1 2 1 2 1 Z " fill="#FCFCFC" transform="translate(358,466)"/>
<path d="M0 0 C2 1 2 1 2 1 Z " fill="#FCFCFC" transform="translate(152,466)"/>
<path d="M0 0 C2 1 2 1 2 1 Z " fill="#FCFCFC" transform="translate(360,465)"/>
<path d="M0 0 C2 1 2 1 2 1 Z " fill="#FCFCFC" transform="translate(150,465)"/>
<path d="M0 0 C2 1 2 1 2 1 Z " fill="#FCFCFC" transform="translate(362,464)"/>
<path d="M0 0 C2 1 2 1 2 1 Z " fill="#FCFCFC" transform="translate(148,464)"/>
<path d="M0 0 C2 1 2 1 2 1 Z " fill="#FCFCFC" transform="translate(364,463)"/>
<path d="M0 0 C2 1 2 1 2 1 Z " fill="#FCFCFC" transform="translate(146,463)"/>
<path d="M0 0 C2 1 2 1 2 1 Z " fill="#FCFCFC" transform="translate(366,462)"/>
<path d="M0 0 C2 1 2 1 2 1 Z " fill="#FCFCFC" transform="translate(144,462)"/>
<path d="M0 0 C2 1 2 1 2 1 Z " fill="#FCFCFC" transform="translate(368,461)"/>
<path d="M0 0 C2 1 2 1 2 1 Z " fill="#FCFCFC" transform="translate(142,461)"/>
<path d="M0 0 C2 1 2 1 2 1 Z " fill="#FCFCFC" transform="translate(370,460)"/>
<path d="M0 0 C2 1 2 1 2 1 Z " fill="#FCFCFC" transform="translate(140,460)"/>
<path d="M0 0 C2 1 2 1 2 1 Z " fill="#FCFCFC" transform="translate(373,458)"/>
<path d="M0 0 C2 1 2 1 2 1 Z " fill="#FCFCFC" transform="translate(137,458)"/>
<path d="M0 0 C2 1 2 1 2 1 Z " fill="#FDFDFD" transform="translate(375,457)"/>
<path d="M0 0 C2 1 2 1 2 1 Z " fill="#FDFDFD" transform="translate(135,457)"/>
<path d="M0 0 C2 1 2 1 2 1 Z " fill="#FDFDFD" transform="translate(377,456)"/>
<path d="M0 0 C2 1 2 1 2 1 Z " fill="#FDFDFD" transform="translate(133,456)"/>
<path d="M0 0 C2 1 2 1 2 1 Z " fill="#FCFCFC" transform="translate(380,454)"/>
<path d="M0 0 C2 1 2 1 2 1 Z " fill="#FCFCFC" transform="translate(130,454)"/>
<path d="M0 0 C2 1 2 1 2 1 Z " fill="#FDFDFD" transform="translate(382,453)"/>
<path d="M0 0 C2 1 2 1 2 1 Z " fill="#FDFDFD" transform="translate(128,453)"/>
<path d="M0 0 C2 1 2 1 2 1 Z " fill="#FCFCFC" transform="translate(385,451)"/>
<path d="M0 0 C2 1 2 1 2 1 Z " fill="#FCFCFC" transform="translate(125,451)"/>
<path d="M0 0 C2 1 2 1 2 1 Z " fill="#FCFCFC" transform="translate(390,448)"/>
<path d="M0 0 C2 1 2 1 2 1 Z " fill="#FCFCFC" transform="translate(120,448)"/>
<path d="M0 0 C2 1 2 1 2 1 Z " fill="#FCFCFC" transform="translate(394,445)"/>
<path d="M0 0 C2 1 2 1 2 1 Z " fill="#FCFCFC" transform="translate(116,445)"/>
<path d="M0 0 C2 1 2 1 2 1 Z " fill="#FDFDFD" transform="translate(397,443)"/>
<path d="M0 0 C2 1 2 1 2 1 Z " fill="#FDFDFD" transform="translate(113,443)"/>
<path d="M0 0 C2 1 2 1 2 1 Z " fill="#FDFDFD" transform="translate(401,440)"/>
<path d="M0 0 C2 1 2 1 2 1 Z " fill="#FDFDFD" transform="translate(109,440)"/>
<path d="M0 0 C2 1 2 1 2 1 Z " fill="#FDFDFD" transform="translate(405,437)"/>
<path d="M0 0 C2 1 2 1 2 1 Z " fill="#FDFDFD" transform="translate(105,437)"/>
<path d="" fill="#FDFDFD" transform="translate(0,0)"/>
<path d="" fill="#FDFDFD" transform="translate(0,0)"/>
<path d="" fill="#FDFDFD" transform="translate(0,0)"/>
<path d="" fill="#FDFDFD" transform="translate(0,0)"/>
<path d="" fill="#FDFDFD" transform="translate(0,0)"/>
<path d="" fill="#FDFDFD" transform="translate(0,0)"/>
<path d="" fill="#FDFDFD" transform="translate(0,0)"/>
<path d="" fill="#FDFDFD" transform="translate(0,0)"/>
<path d="" fill="#FCFCFC" transform="translate(0,0)"/>
<path d="" fill="#FCFCFC" transform="translate(0,0)"/>
<path d="" fill="#FCFCFC" transform="translate(0,0)"/>
<path d="" fill="#FCFCFC" transform="translate(0,0)"/>
<path d="" fill="#FCFCFC" transform="translate(0,0)"/>
<path d="" fill="#FCFCFC" transform="translate(0,0)"/>
<path d="" fill="#FDFDFD" transform="translate(0,0)"/>
<path d="" fill="#FDFDFD" transform="translate(0,0)"/>
<path d="" fill="#FDFDFD" transform="translate(0,0)"/>
<path d="" fill="#FDFDFD" transform="translate(0,0)"/>
<path d="" fill="#FCFCFC" transform="translate(0,0)"/>
<path d="" fill="#FCFCFC" transform="translate(0,0)"/>
<path d="" fill="#FDFDFD" transform="translate(0,0)"/>
<path d="" fill="#FDFDFD" transform="translate(0,0)"/>
<path d="" fill="#FDFDFD" transform="translate(0,0)"/>
<path d="" fill="#FDFDFD" transform="translate(0,0)"/>
<path d="" fill="#FDFDFD" transform="translate(0,0)"/>
<path d="" fill="#FDFDFD" transform="translate(0,0)"/>
<path d="" fill="#FCFCFC" transform="translate(0,0)"/>
<path d="" fill="#FCFCFC" transform="translate(0,0)"/>
<path d="" fill="#FCFCFC" transform="translate(0,0)"/>
<path d="" fill="#FCFCFC" transform="translate(0,0)"/>
<path d="" fill="#FCFCFC" transform="translate(0,0)"/>
<path d="" fill="#FCFCFC" transform="translate(0,0)"/>
<path d="" fill="#FCFCFC" transform="translate(0,0)"/>
<path d="" fill="#FCFCFC" transform="translate(0,0)"/>
<path d="" fill="#FCFCFC" transform="translate(0,0)"/>
<path d="" fill="#FCFCFC" transform="translate(0,0)"/>
<path d="" fill="#FDFDFD" transform="translate(0,0)"/>
<path d="" fill="#FDFDFD" transform="translate(0,0)"/>
<path d="" fill="#FDFDFD" transform="translate(0,0)"/>
<path d="" fill="#FDFDFD" transform="translate(0,0)"/>
<path d="" fill="#FCFCFC" transform="translate(0,0)"/>
<path d="" fill="#FCFCFC" transform="translate(0,0)"/>
<path d="" fill="#FBFBFB" transform="translate(0,0)"/>
<path d="" fill="#FBFBFB" transform="translate(0,0)"/>
<path d="" fill="#FCFCFC" transform="translate(0,0)"/>
<path d="" fill="#FCFCFC" transform="translate(0,0)"/>
<path d="" fill="#FDFDFD" transform="translate(0,0)"/>
<path d="" fill="#FDFDFD" transform="translate(0,0)"/>
<path d="" fill="#FDFDFD" transform="translate(0,0)"/>
<path d="" fill="#FDFDFD" transform="translate(0,0)"/>
<path d="" fill="#FCFCFC" transform="translate(0,0)"/>
<path d="" fill="#FCFCFC" transform="translate(0,0)"/>
<path d="" fill="#FBFBFB" transform="translate(0,0)"/>
<path d="" fill="#FBFBFB" transform="translate(0,0)"/>
<path d="" fill="#FCFCFC" transform="translate(0,0)"/>
<path d="" fill="#FCFCFC" transform="translate(0,0)"/>
<path d="" fill="#FDFDFD" transform="translate(0,0)"/>
<path d="" fill="#FDFDFD" transform="translate(0,0)"/>
<path d="" fill="#FDFDFD" transform="translate(0,0)"/>
<path d="" fill="#FDFDFD" transform="translate(0,0)"/>
<path d="" fill="#FCFCFC" transform="translate(0,0)"/>
<path d="" fill="#FCFCFC" transform="translate(0,0)"/>
<path d="" fill="#FCFCFC" transform="translate(0,0)"/>
<path d="" fill="#FCFCFC" transform="translate(0,0)"/>
<path d="" fill="#FCFCFC" transform="translate(0,0)"/>
<path d="" fill="#FCFCFC" transform="translate(0,0)"/>
<path d="" fill="#FCFCFC" transform="translate(0,0)"/>
<path d="" fill="#FCFCFC" transform="translate(0,0)"/>
<path d="" fill="#FCFCFC" transform="translate(0,0)"/>
<path d="" fill="#FCFCFC" transform="translate(0,0)"/>
<path d="" fill="#FDFDFD" transform="translate(0,0)"/>
<path d="" fill="#FDFDFD" transform="translate(0,0)"/>
<path d="" fill="#FDFDFD" transform="translate(0,0)"/>
<path d="" fill="#FDFDFD" transform="translate(0,0)"/>
<path d="" fill="#FDFDFD" transform="translate(0,0)"/>
<path d="" fill="#FDFDFD" transform="translate(0,0)"/>
<path d="" fill="#FCFCFC" transform="translate(0,0)"/>
<path d="" fill="#FCFCFC" transform="translate(0,0)"/>
<path d="" fill="#FDFDFD" transform="translate(0,0)"/>
<path d="" fill="#FDFDFD" transform="translate(0,0)"/>
<path d="" fill="#FDFDFD" transform="translate(0,0)"/>
<path d="" fill="#FDFDFD" transform="translate(0,0)"/>
<path d="" fill="#FCFCFC" transform="translate(0,0)"/>
<path d="" fill="#FCFCFC" transform="translate(0,0)"/>
<path d="" fill="#FCFCFC" transform="translate(0,0)"/>
<path d="" fill="#FCFCFC" transform="translate(0,0)"/>
<path d="" fill="#FCFCFC" transform="translate(0,0)"/>
<path d="" fill="#FCFCFC" transform="translate(0,0)"/>
<path d="" fill="#FDFDFD" transform="translate(0,0)"/>
<path d="" fill="#FDFDFD" transform="translate(0,0)"/>
<path d="" fill="#FDFDFD" transform="translate(0,0)"/>
<path d="" fill="#FDFDFD" transform="translate(0,0)"/>
<path d="" fill="#FDFDFD" transform="translate(0,0)"/>
<path d="" fill="#FDFDFD" transform="translate(0,0)"/>
<path d="" fill="#FDFDFD" transform="translate(0,0)"/>
<path d="" fill="#FDFDFD" transform="translate(0,0)"/>
<path d="M0 0 C2 1 2 1 2 1 Z " fill="#FDFDFD" transform="translate(405,74)"/>
<path d="M0 0 C2 1 2 1 2 1 Z " fill="#FDFDFD" transform="translate(105,74)"/>
<path d="M0 0 C2 1 2 1 2 1 Z " fill="#FDFDFD" transform="translate(401,71)"/>
<path d="M0 0 C2 1 2 1 2 1 Z " fill="#FDFDFD" transform="translate(109,71)"/>
<path d="M0 0 C2 1 2 1 2 1 Z " fill="#FDFDFD" transform="translate(397,68)"/>
<path d="M0 0 C2 1 2 1 2 1 Z " fill="#FDFDFD" transform="translate(113,68)"/>
<path d="M0 0 C2 1 2 1 2 1 Z " fill="#FCFCFC" transform="translate(394,66)"/>
<path d="M0 0 C2 1 2 1 2 1 Z " fill="#FCFCFC" transform="translate(116,66)"/>
<path d="M0 0 C2 1 2 1 2 1 Z " fill="#FCFCFC" transform="translate(390,63)"/>
<path d="M0 0 C2 1 2 1 2 1 Z " fill="#FCFCFC" transform="translate(120,63)"/>
<path d="M0 0 C2 1 2 1 2 1 Z " fill="#FCFCFC" transform="translate(385,60)"/>
<path d="M0 0 C2 1 2 1 2 1 Z " fill="#FCFCFC" transform="translate(125,60)"/>
<path d="M0 0 C2 1 2 1 2 1 Z " fill="#FDFDFD" transform="translate(382,58)"/>
<path d="M0 0 C2 1 2 1 2 1 Z " fill="#FDFDFD" transform="translate(128,58)"/>
<path d="M0 0 C2 1 2 1 2 1 Z " fill="#FCFCFC" transform="translate(380,57)"/>
<path d="M0 0 C2 1 2 1 2 1 Z " fill="#FCFCFC" transform="translate(130,57)"/>
<path d="M0 0 C2 1 2 1 2 1 Z " fill="#FDFDFD" transform="translate(377,55)"/>
<path d="M0 0 C2 1 2 1 2 1 Z " fill="#FDFDFD" transform="translate(133,55)"/>
<path d="M0 0 C2 1 2 1 2 1 Z " fill="#FDFDFD" transform="translate(375,54)"/>
<path d="M0 0 C2 1 2 1 2 1 Z " fill="#FDFDFD" transform="translate(135,54)"/>
<path d="M0 0 C2 1 2 1 2 1 Z " fill="#FCFCFC" transform="translate(373,53)"/>
<path d="M0 0 C2 1 2 1 2 1 Z " fill="#FCFCFC" transform="translate(137,53)"/>
<path d="M0 0 C2 1 2 1 2 1 Z " fill="#FCFCFC" transform="translate(370,51)"/>
<path d="M0 0 C2 1 2 1 2 1 Z " fill="#FCFCFC" transform="translate(140,51)"/>
<path d="M0 0 C2 1 2 1 2 1 Z " fill="#FCFCFC" transform="translate(368,50)"/>
<path d="M0 0 C2 1 2 1 2 1 Z " fill="#FCFCFC" transform="translate(142,50)"/>
<path d="M0 0 C2 1 2 1 2 1 Z " fill="#FCFCFC" transform="translate(366,49)"/>
<path d="M0 0 C2 1 2 1 2 1 Z " fill="#FCFCFC" transform="translate(144,49)"/>
<path d="M0 0 C2 1 2 1 2 1 Z " fill="#FCFCFC" transform="translate(364,48)"/>
<path d="M0 0 C2 1 2 1 2 1 Z " fill="#FCFCFC" transform="translate(146,48)"/>
<path d="M0 0 C2 1 2 1 2 1 Z " fill="#FCFCFC" transform="translate(362,47)"/>
<path d="M0 0 C2 1 2 1 2 1 Z " fill="#FCFCFC" transform="translate(148,47)"/>
<path d="M0 0 C2 1 2 1 2 1 Z " fill="#FCFCFC" transform="translate(360,46)"/>
<path d="M0 0 C2 1 2 1 2 1 Z " fill="#FCFCFC" transform="translate(150,46)"/>
<path d="M0 0 C2 1 2 1 2 1 Z " fill="#FCFCFC" transform="translate(358,45)"/>
<path d="M0 0 C2 1 2 1 2 1 Z " fill="#FCFCFC" transform="translate(152,45)"/>
<path d="M0 0 C2 1 2 1 2 1 Z " fill="#FDFDFD" transform="translate(353,43)"/>
<path d="M0 0 C2 1 2 1 2 1 Z " fill="#FDFDFD" transform="translate(157,43)"/>
<path d="M0 0 C2 1 2 1 2 1 Z " fill="#FDFDFD" transform="translate(351,42)"/>
<path d="M0 0 C2 1 2 1 2 1 Z " fill="#FDFDFD" transform="translate(159,42)"/>
<path d="M0 0 C2 1 2 1 2 1 Z " fill="#FDFDFD" transform="translate(346,40)"/>
<path d="M0 0 C2 1 2 1 2 1 Z " fill="#FDFDFD" transform="translate(164,40)"/>
<path d="M0 0 C2 1 2 1 2 1 Z " fill="#FDFDFD" transform="translate(341,38)"/>
<path d="M0 0 C2 1 2 1 2 1 Z " fill="#FDFDFD" transform="translate(169,38)"/>
<path d="" fill="#FCFCFC" transform="translate(0,0)"/>
<path d="" fill="#FCFCFC" transform="translate(0,0)"/>
<path d="" fill="#FCFCFC" transform="translate(0,0)"/>
<path d="" fill="#FCFCFC" transform="translate(0,0)"/>
<path d="" fill="#FEFEFE" transform="translate(0,0)"/>
<path d="" fill="#FEFEFE" transform="translate(0,0)"/>
<path d="" fill="#F9F9F9" transform="translate(0,0)"/>
<path d="" fill="#F9F9F9" transform="translate(0,0)"/>
<path d="" fill="#FEFEFE" transform="translate(0,0)"/>
<path d="" fill="#FEFEFE" transform="translate(0,0)"/>
<path d="" fill="#FCFCFC" transform="translate(0,0)"/>
<path d="" fill="#FCFCFC" transform="translate(0,0)"/>
<path d="" fill="#FAFAFA" transform="translate(0,0)"/>
<path d="" fill="#FAFAFA" transform="translate(0,0)"/>
<path d="" fill="#FEFEFE" transform="translate(0,0)"/>
<path d="" fill="#FEFEFE" transform="translate(0,0)"/>
<path d="" fill="#FAFAFA" transform="translate(0,0)"/>
<path d="" fill="#FAFAFA" transform="translate(0,0)"/>
<path d="" fill="#FEFEFE" transform="translate(0,0)"/>
<path d="" fill="#FEFEFE" transform="translate(0,0)"/>
<path d="" fill="#FAFAFA" transform="translate(0,0)"/>
<path d="" fill="#FAFAFA" transform="translate(0,0)"/>
<path d="" fill="#FCFCFC" transform="translate(0,0)"/>
<path d="" fill="#FCFCFC" transform="translate(0,0)"/>
<path d="" fill="#FFFFFF" transform="translate(0,0)"/>
<path d="" fill="#FFFFFF" transform="translate(0,0)"/>
<path d="" fill="#FAFAFA" transform="translate(0,0)"/>
<path d="" fill="#FAFAFA" transform="translate(0,0)"/>
<path d="" fill="#F8F8F8" transform="translate(0,0)"/>
<path d="" fill="#F8F8F8" transform="translate(0,0)"/>
<path d="" fill="#FEFEFE" transform="translate(0,0)"/>
<path d="" fill="#FEFEFE" transform="translate(0,0)"/>
<path d="" fill="#FFFFFF" transform="translate(0,0)"/>
<path d="" fill="#FFFFFF" transform="translate(0,0)"/>
<path d="" fill="#FAFAFA" transform="translate(0,0)"/>
<path d="" fill="#FAFAFA" transform="translate(0,0)"/>
<path d="" fill="#FAFAFA" transform="translate(0,0)"/>
<path d="" fill="#FAFAFA" transform="translate(0,0)"/>
<path d="" fill="#FAFAFA" transform="translate(0,0)"/>
<path d="" fill="#FAFAFA" transform="translate(0,0)"/>
<path d="" fill="#FAFAFA" transform="translate(0,0)"/>
<path d="" fill="#FAFAFA" transform="translate(0,0)"/>
<path d="" fill="#FAFAFA" transform="translate(0,0)"/>
<path d="" fill="#FAFAFA" transform="translate(0,0)"/>
<path d="" fill="#FAFAFA" transform="translate(0,0)"/>
<path d="" fill="#FAFAFA" transform="translate(0,0)"/>
<path d="" fill="#FAFAFA" transform="translate(0,0)"/>
<path d="" fill="#FAFAFA" transform="translate(0,0)"/>
<path d="" fill="#FAFAFA" transform="translate(0,0)"/>
<path d="" fill="#FAFAFA" transform="translate(0,0)"/>
<path d="" fill="#FAFAFA" transform="translate(0,0)"/>
<path d="" fill="#FAFAFA" transform="translate(0,0)"/>
<path d="" fill="#FAFAFA" transform="translate(0,0)"/>
<path d="" fill="#FAFAFA" transform="translate(0,0)"/>
<path d="" fill="#FAFAFA" transform="translate(0,0)"/>
<path d="" fill="#FAFAFA" transform="translate(0,0)"/>
<path d="" fill="#FAFAFA" transform="translate(0,0)"/>
<path d="" fill="#FAFAFA" transform="translate(0,0)"/>
<path d="" fill="#FAFAFA" transform="translate(0,0)"/>
<path d="" fill="#FAFAFA" transform="translate(0,0)"/>
<path d="" fill="#FFFFFF" transform="translate(0,0)"/>
<path d="" fill="#FFFFFF" transform="translate(0,0)"/>
<path d="" fill="#FEFEFE" transform="translate(0,0)"/>
<path d="" fill="#FEFEFE" transform="translate(0,0)"/>
<path d="" fill="#F8F8F8" transform="translate(0,0)"/>
<path d="" fill="#F8F8F8" transform="translate(0,0)"/>
<path d="" fill="#FAFAFA" transform="translate(0,0)"/>
<path d="" fill="#FAFAFA" transform="translate(0,0)"/>
<path d="" fill="#FBFBFB" transform="translate(0,0)"/>
<path d="" fill="#FBFBFB" transform="translate(0,0)"/>
<path d="" fill="#FFFFFF" transform="translate(0,0)"/>
<path d="" fill="#FFFFFF" transform="translate(0,0)"/>
<path d="" fill="#FCFCFC" transform="translate(0,0)"/>
<path d="" fill="#FCFCFC" transform="translate(0,0)"/>
<path d="" fill="#FCFCFC" transform="translate(0,0)"/>
<path d="" fill="#FCFCFC" transform="translate(0,0)"/>
<path d="" fill="#FEFEFE" transform="translate(0,0)"/>
<path d="" fill="#FEFEFE" transform="translate(0,0)"/>
<path d="" fill="#FAFAFA" transform="translate(0,0)"/>
<path d="" fill="#FAFAFA" transform="translate(0,0)"/>
<path d="" fill="#FEFEFE" transform="translate(0,0)"/>
<path d="" fill="#FEFEFE" transform="translate(0,0)"/>
<path d="" fill="#FAFAFA" transform="translate(0,0)"/>
<path d="" fill="#FAFAFA" transform="translate(0,0)"/>
<path d="" fill="#FCFCFC" transform="translate(0,0)"/>
<path d="" fill="#FCFCFC" transform="translate(0,0)"/>
<path d="" fill="#FEFEFE" transform="translate(0,0)"/>
<path d="" fill="#FEFEFE" transform="translate(0,0)"/>
<path d="" fill="#F9F9F9" transform="translate(0,0)"/>
<path d="" fill="#F9F9F9" transform="translate(0,0)"/>
<path d="" fill="#FDFDFD" transform="translate(0,0)"/>
<path d="" fill="#FDFDFD" transform="translate(0,0)"/>
<path d="" fill="#FCFCFC" transform="translate(0,0)"/>
<path d="" fill="#FCFCFC" transform="translate(0,0)"/>
<path d="" fill="#FCFCFC" transform="translate(0,0)"/>
<path d="" fill="#FCFCFC" transform="translate(0,0)"/>
<path d="" fill="#FCFCFC" transform="translate(0,0)"/>
<path d="" fill="#FCFCFC" transform="translate(0,0)"/>
<path d="" fill="#FCFCFC" transform="translate(0,0)"/>
<path d="" fill="#FCFCFC" transform="translate(0,0)"/>
<path d="" fill="#FCFCFC" transform="translate(0,0)"/>
<path d="" fill="#FCFCFC" transform="translate(0,0)"/>
<path d="" fill="#FCFCFC" transform="translate(0,0)"/>
<path d="" fill="#FCFCFC" transform="translate(0,0)"/>
<path d="" fill="#FDFDFD" transform="translate(0,0)"/>
<path d="" fill="#FDFDFD" transform="translate(0,0)"/>
<path d="" fill="#F9F9F9" transform="translate(0,0)"/>
<path d="" fill="#F9F9F9" transform="translate(0,0)"/>
<path d="" fill="#FEFEFE" transform="translate(0,0)"/>
<path d="" fill="#FEFEFE" transform="translate(0,0)"/>
<path d="" fill="#FCFCFC" transform="translate(0,0)"/>
<path d="" fill="#FCFCFC" transform="translate(0,0)"/>
<path d="" fill="#FAFAFA" transform="translate(0,0)"/>
<path d="" fill="#FAFAFA" transform="translate(0,0)"/>
<path d="" fill="#FEFEFE" transform="translate(0,0)"/>
<path d="" fill="#FEFEFE" transform="translate(0,0)"/>
<path d="" fill="#FAFAFA" transform="translate(0,0)"/>
<path d="" fill="#FAFAFA" transform="translate(0,0)"/>
<path d="" fill="#FEFEFE" transform="translate(0,0)"/>
<path d="" fill="#FEFEFE" transform="translate(0,0)"/>
<path d="" fill="#FCFCFC" transform="translate(0,0)"/>
<path d="" fill="#FCFCFC" transform="translate(0,0)"/>
<path d="" fill="#FCFCFC" transform="translate(0,0)"/>
<path d="" fill="#FCFCFC" transform="translate(0,0)"/>
<path d="" fill="#FFFFFF" transform="translate(0,0)"/>
<path d="" fill="#FFFFFF" transform="translate(0,0)"/>
<path d="" fill="#FBFBFB" transform="translate(0,0)"/>
<path d="" fill="#FBFBFB" transform="translate(0,0)"/>
<path d="" fill="#FAFAFA" transform="translate(0,0)"/>
<path d="" fill="#FAFAFA" transform="translate(0,0)"/>
<path d="" fill="#F8F8F8" transform="translate(0,0)"/>
<path d="" fill="#F8F8F8" transform="translate(0,0)"/>
<path d="" fill="#FEFEFE" transform="translate(0,0)"/>
<path d="" fill="#FEFEFE" transform="translate(0,0)"/>
<path d="" fill="#FFFFFF" transform="translate(0,0)"/>
<path d="" fill="#FFFFFF" transform="translate(0,0)"/>
<path d="" fill="#FAFAFA" transform="translate(0,0)"/>
<path d="" fill="#FAFAFA" transform="translate(0,0)"/>
<path d="" fill="#FAFAFA" transform="translate(0,0)"/>
<path d="" fill="#FAFAFA" transform="translate(0,0)"/>
<path d="" fill="#FAFAFA" transform="translate(0,0)"/>
<path d="" fill="#FAFAFA" transform="translate(0,0)"/>
<path d="" fill="#FAFAFA" transform="translate(0,0)"/>
<path d="" fill="#FAFAFA" transform="translate(0,0)"/>
<path d="" fill="#FAFAFA" transform="translate(0,0)"/>
<path d="" fill="#FAFAFA" transform="translate(0,0)"/>
<path d="" fill="#FAFAFA" transform="translate(0,0)"/>
<path d="" fill="#FAFAFA" transform="translate(0,0)"/>
<path d="" fill="#FAFAFA" transform="translate(0,0)"/>
<path d="" fill="#FAFAFA" transform="translate(0,0)"/>
<path d="" fill="#FAFAFA" transform="translate(0,0)"/>
<path d="" fill="#FAFAFA" transform="translate(0,0)"/>
<path d="" fill="#FAFAFA" transform="translate(0,0)"/>
<path d="" fill="#FAFAFA" transform="translate(0,0)"/>
<path d="" fill="#FAFAFA" transform="translate(0,0)"/>
<path d="" fill="#FAFAFA" transform="translate(0,0)"/>
<path d="" fill="#FAFAFA" transform="translate(0,0)"/>
<path d="" fill="#FAFAFA" transform="translate(0,0)"/>
<path d="" fill="#FAFAFA" transform="translate(0,0)"/>
<path d="" fill="#FAFAFA" transform="translate(0,0)"/>
<path d="" fill="#FAFAFA" transform="translate(0,0)"/>
<path d="" fill="#FAFAFA" transform="translate(0,0)"/>
<path d="" fill="#FFFFFF" transform="translate(0,0)"/>
<path d="" fill="#FFFFFF" transform="translate(0,0)"/>
<path d="" fill="#FEFEFE" transform="translate(0,0)"/>
<path d="" fill="#FEFEFE" transform="translate(0,0)"/>
<path d="" fill="#F8F8F8" transform="translate(0,0)"/>
<path d="" fill="#F8F8F8" transform="translate(0,0)"/>
<path d="" fill="#FAFAFA" transform="translate(0,0)"/>
<path d="" fill="#FAFAFA" transform="translate(0,0)"/>
<path d="" fill="#FFFFFF" transform="translate(0,0)"/>
<path d="" fill="#FFFFFF" transform="translate(0,0)"/>
<path d="" fill="#FCFCFC" transform="translate(0,0)"/>
<path d="" fill="#FCFCFC" transform="translate(0,0)"/>
<path d="" fill="#FAFAFA" transform="translate(0,0)"/>
<path d="" fill="#FAFAFA" transform="translate(0,0)"/>
<path d="" fill="#FEFEFE" transform="translate(0,0)"/>
<path d="" fill="#FEFEFE" transform="translate(0,0)"/>
<path d="" fill="#FAFAFA" transform="translate(0,0)"/>
<path d="" fill="#FAFAFA" transform="translate(0,0)"/>
<path d="" fill="#FEFEFE" transform="translate(0,0)"/>
<path d="" fill="#FEFEFE" transform="translate(0,0)"/>
<path d="" fill="#FAFAFA" transform="translate(0,0)"/>
<path d="" fill="#FAFAFA" transform="translate(0,0)"/>
<path d="" fill="#FCFCFC" transform="translate(0,0)"/>
<path d="" fill="#FCFCFC" transform="translate(0,0)"/>
<path d="" fill="#FEFEFE" transform="translate(0,0)"/>
<path d="" fill="#FEFEFE" transform="translate(0,0)"/>
<path d="" fill="#F9F9F9" transform="translate(0,0)"/>
<path d="" fill="#F9F9F9" transform="translate(0,0)"/>
<path d="" fill="#FEFEFE" transform="translate(0,0)"/>
<path d="" fill="#FEFEFE" transform="translate(0,0)"/>
<path d="" fill="#FCFCFC" transform="translate(0,0)"/>
<path d="" fill="#FCFCFC" transform="translate(0,0)"/>
<path d="" fill="#FCFCFC" transform="translate(0,0)"/>
<path d="" fill="#FCFCFC" transform="translate(0,0)"/>
</svg>
